# xmcd
#
# Track frame offsets: 
#        150
#        26325
#        56215
#        85908
#        96030
#        116790
#        149588
#        166938
#        190365
#        210438
#        219695
#
# Disc length: 3074 seconds
#
# Revision: 1
# Processed by: cddbd v1.5.2PL0 Copyright (c) Steve Scherf et al.
# Submitted via: ExactAudioCopy v0.95b4
#
DISCID=a00c000b
DTITLE=Herbie Hancock - Jammin' with Herbie
DYEAR=2005
DGENRE=Jazz
TTITLE0=Herbie's Blues
TTITLE1=Rock Your Soul
TTITLE2=Jammin' With Herbie
TTITLE3=Hot And Heavy
TTITLE4=Night Walker
TTITLE5=Hot Piano
TTITLE6=Live And Awake
TTITLE7=Scoochie
TTITLE8=Witch Fire
TTITLE9=Afro Boogie
TTITLE10=Far Out
EXTD=
EXTT0=
EXTT1=
EXTT2=
EXTT3=
EXTT4=
EXTT5=
EXTT6=
EXTT7=
EXTT8=
EXTT9=
EXTT10=
PLAYORDER=
